<svg width="153" height="151" viewBox="0 0 153 151" fill="none" xmlns="http://www.w3.org/2000/svg">
<path d="M104.735 88.5742L113.856 107.297L113.975 107.538L113.838 107.77L107.338 118.77L107.308 118.82L107.267 118.863L92.7666 133.863L92.6631 133.971L92.5176 134.003L21.5176 150.003L20.5518 150.221L20.9492 149.314C22.4511 145.893 24.8298 140.661 27.084 136.082C28.2107 133.793 29.3094 131.661 30.2539 129.998C30.7259 129.167 31.1632 128.447 31.5488 127.88C31.925 127.327 32.2809 126.876 32.5947 126.625C32.8921 126.387 33.5865 126 34.5322 125.513C35.4991 125.015 36.782 124.388 38.3018 123.663C41.3426 122.214 45.3461 120.371 49.7012 118.397C58.394 114.459 68.4968 109.993 75.165 107.075L103.642 88.6133L103.458 88.2344L104.356 87.7969L104.735 88.5742ZM39.2256 0.130859L53.5537 11.9893L70.8369 9.52051L70.9932 9.49805L71.1348 9.57031L93.6123 21.0586L122.095 32.5518L122.235 32.6094L122.321 32.7354L141.321 60.7354L141.402 60.8545L141.407 60.999L142.907 105.999L142.914 106.216L128.688 120.442L128.592 120.48L97.0918 132.98L96.5469 132.169L110.001 118.215L115.845 107.502L106.486 88.2939L75.1094 52.4346L45.3535 40.5322L16.4922 45.5088L16.3379 45.5352L16.1953 45.4688L1.19531 38.4688L0 37.9111L1.26562 37.5361L48.9395 23.4277L3.70996 3.97461L3.86426 3.01758L38.8643 0.0175781L39.0684 0L39.2256 0.130859ZM93.9609 75.3623L93.8926 75.6367L92.8926 79.6367L92.4395 81.4482L91.9268 79.6533L89.9268 72.6533L89.3965 70.7979L93.9609 75.3623ZM86.2871 66.1904L89.2871 69.6904L89.4707 69.9053L89.3818 70.1738L87.8818 74.6738L87.2715 76.5039L86.916 74.6074L85.416 66.6074L85.0713 64.7725L86.2871 66.1904ZM151.853 23.7432C149.739 27.8859 145.302 33.5257 141.372 38.0557C139.402 40.3266 137.548 42.3319 136.159 43.7461C135.466 44.452 134.882 45.0165 134.456 45.3945C134.245 45.5813 134.061 45.7335 133.915 45.835C133.846 45.8832 133.761 45.9365 133.674 45.9727C133.632 45.99 133.558 46.0166 133.468 46.0225C133.376 46.0284 133.2 46.0152 133.054 45.8691C132.994 45.8096 132.92 45.7096 132.857 45.6221C132.784 45.5197 132.69 45.384 132.579 45.2207C132.356 44.893 132.058 44.4436 131.703 43.9023C130.993 42.8191 130.052 41.3611 129.024 39.7607C126.969 36.5596 124.568 32.7837 122.984 30.2832L122.607 29.6875L123.294 29.5283L151.294 23.0283L152.341 22.7852L151.853 23.7432ZM128.814 17.8066L121.314 28.3066L121.107 28.5947L120.768 28.4961L108.768 24.9961L107.29 24.5645L108.738 24.0449L128.238 17.0449L129.744 16.5049L128.814 17.8066ZM113.22 16.9062L105.72 22.9062L105.497 23.084L105.23 22.9834L97.2363 19.9619L96.999 20.0068L96.8154 19.0244L97.1914 18.9541L112.815 16.0244L113.22 16.9062ZM64.4072 13.5156C61.9219 13.5156 59.9072 15.5303 59.9072 18.0156C59.9072 20.5009 61.9219 22.5156 64.4072 22.5156C66.8925 22.5156 68.9072 20.5009 68.9072 18.0156C68.9072 15.5303 66.8925 13.5156 64.4072 13.5156Z" fill="white"/>
</svg>
